<svg width="261" height="261" viewBox="0 0 261 261" fill="none" xmlns="http://www.w3.org/2000/svg">
<path d="M41.1409 30.7325L130.5 10.875L219.859 30.7325C224.835 31.8383 228.375 36.2515 228.375 41.3486V149.954C228.375 171.771 217.472 192.144 199.319 204.246L130.5 250.125L61.6808 204.246C43.5284 192.144 32.625 171.771 32.625 149.954V41.3486C32.625 36.2515 36.1651 31.8383 41.1409 30.7325Z" fill="#8D0E0E"/>
<path d="M130.5 53.0834C166.628 53.0834 195.917 82.3714 195.917 118.5V143.122C195.917 148.078 193.117 152.608 188.684 154.825L169.75 164.292V170.833C169.75 181.285 161.58 189.828 151.278 190.425L149.797 190.461C149.941 189.756 150.039 189.034 150.088 188.3L150.125 187.188V183.917C150.125 177.019 144.788 171.368 138.018 170.869L137.042 170.833H123.958C117.061 170.833 111.41 176.171 110.911 182.94L110.875 183.917V187.188C110.875 188.309 110.988 189.403 111.203 190.461L110.875 190.458C100.036 190.458 91.25 181.672 91.25 170.833V164.292L72.3156 154.825C67.8832 152.608 65.0834 148.078 65.0834 143.122V118.5C65.0834 82.3714 94.3714 53.0834 130.5 53.0834ZM130.5 66.1667C102.143 66.1667 79.0528 88.7213 78.1916 116.87L78.1667 118.5V143.122L104.333 156.206V166.614L104.826 166.065C109.332 161.24 115.636 158.132 122.638 157.783L123.958 157.75L137.523 157.759L138.981 157.821C145.511 158.303 151.347 161.164 155.654 165.524L156.667 166.614V156.206L182.833 143.122V118.5C182.833 89.5971 159.403 66.1667 130.5 66.1667ZM104.333 111.958C111.559 111.958 117.417 117.816 117.417 125.042C117.417 132.268 111.559 138.125 104.333 138.125C97.1076 138.125 91.25 132.268 91.25 125.042C91.25 117.816 97.1076 111.958 104.333 111.958ZM156.667 111.958C163.893 111.958 169.75 117.816 169.75 125.042C169.75 132.268 163.893 138.125 156.667 138.125C149.441 138.125 143.583 132.268 143.583 125.042C143.583 117.816 149.441 111.958 156.667 111.958Z" fill="#1C272D"/>
</svg>
